<?xml version="1.0" encoding="UTF-8" standalone="no"?>
<svg
   xmlns:dc="http://purl.org/dc/elements/1.1/"
   xmlns:cc="http://creativecommons.org/ns#"
   xmlns:rdf="http://www.w3.org/1999/02/22-rdf-syntax-ns#"
   xmlns:svg="http://www.w3.org/2000/svg"
   xmlns="http://www.w3.org/2000/svg"
   xmlns:sodipodi="http://sodipodi.sourceforge.net/DTD/sodipodi-0.dtd"
   xmlns:inkscape="http://www.inkscape.org/namespaces/inkscape"
   width="18mm"

   viewBox="0 0 210 297"
   version="1.1"
   id="svg8"
   inkscape:version="1.0.1 (3bc2e813f5, 2020-09-07)"
   sodipodi:docname="Abduction.svg">
  <defs
     id="defs2" />
  <sodipodi:namedview
     id="base"
     pagecolor="#ffffff"
     bordercolor="#666666"
     borderopacity="1.0"
     inkscape:pageopacity="0.0"
     inkscape:pageshadow="2"
     inkscape:zoom="0.35"
     inkscape:cx="400"
     inkscape:cy="217.14286"
     inkscape:document-units="mm"
     inkscape:current-layer="layer1"
     inkscape:document-rotation="0"
     showgrid="false"
     inkscape:window-width="1258"
     inkscape:window-height="1040"
     inkscape:window-x="234"
     inkscape:window-y="0"
     inkscape:window-maximized="0" />
  <metadata
     id="metadata5">
    <rdf:RDF>
      <cc:Work
         rdf:about="">
        <dc:format>image/svg+xml</dc:format>
        <dc:type
           rdf:resource="http://purl.org/dc/dcmitype/StillImage" />
        <dc:title></dc:title>
      </cc:Work>
    </rdf:RDF>
  </metadata>
  <g
     inkscape:label="Capa 1"
     inkscape:groupmode="layer"
     id="layer1">
    <path
       style="fill:#000000;stroke-width:0.464164"
       d="m 71.663787,214.66991 c 0.02268,-0.53122 0.134626,-0.63927 0.285448,-0.2755 0.136483,0.32917 0.1197,0.72248 -0.03728,0.87401 -0.157002,0.15152 -0.268665,-0.11781 -0.248151,-0.59851 z m 0.474403,-2.24203 c -0.09111,-3.52382 4.961561,-52.90499 8.001898,-78.20481 4.05918,-33.77808 3.456492,-30.13351 5.217734,-31.55262 0.852799,-0.68713 2.949031,-1.95358 4.658296,-2.814317 10.147382,-5.10998 22.178122,-5.76493 32.581712,-1.77374 3.13007,1.20081 10.92225,5.396517 10.92225,5.881107 0,0.14161 1.18216,5.41762 2.62703,11.72448 3.92812,17.14636 9.70162,44.17077 9.53791,44.64477 -0.18806,0.54451 -5.97805,-19.27858 -12.68746,-43.43786 -1.56717,-5.64306 -3.10062,-10.50503 -3.40767,-10.80437 -1.08029,-1.05318 -7.40429,-3.7896 -11.04787,-4.78044 -4.82675,-1.312607 -13.51677,-1.408627 -18.09485,-0.19994 -2.704429,0.71402 -9.634519,3.62449 -11.194979,4.70163 -0.339791,0.23455 -1.615012,7.91623 -3.204369,19.3025 -4.217071,30.2114 -8.02571,55.30704 -11.624813,76.5975 -1.997633,11.81697 -2.228378,12.89919 -2.284819,10.71611 z m 41.38066,-3.26803 c -0.17324,-0.1672 -0.31718,-2.27052 -0.31986,-4.67405 -0.0121,-10.80955 -2.82936,-32.09171 -4.46286,-33.71286 -0.74085,-0.73526 -2.08161,-0.19339 -4.19703,1.69625 -1.98341,1.77171 -2.68423,3.38106 -2.95999,6.7972 -0.35674,4.41952 -0.54511,5.02386 -1.816469,5.82785 -1.40296,0.88722 -2.87613,0.29541 -3.18832,-1.28082 -0.36801,-1.85801 0.53861,-8.78757 1.50404,-11.49585 0.51436,-1.44289 1.6644,-3.60307 2.555659,-4.8004 1.49743,-2.01168 3.12044,-4.70405 3.12044,-5.17641 0,-0.10995 -0.77272,-0.33981 -1.71716,-0.51081 -1.15288,-0.20875 -2.565219,-1.08502 -4.297849,-2.66657 -4.41633,-4.03121 -4.80669,-5.65069 -2.2465,-9.31988 2.44186,-3.49959 5.455529,-4.59103 9.057579,-3.28033 2.79557,1.01724 10.07026,9.17072 10.0714,11.28802 4.7e-4,1.10562 0.28118,1.30371 2.89805,2.04595 2.67278,0.75811 3.33204,1.24131 8.50381,6.23284 3.08353,2.97607 5.60641,5.62577 5.60641,5.88821 0,0.66554 -1.59872,1.42129 -3.00661,1.42129 -1.2079,0 -5.99118,-4.07433 -7.45246,-6.3479 -0.7047,-1.09642 -1.82516,-1.01821 -1.82516,0.1274 0,0.31117 1.70436,3.32579 3.78747,6.69916 2.08311,3.37338 4.10292,7.14536 4.48847,8.3822 0.84105,2.69806 0.99749,18.45447 0.20501,20.64855 -0.52335,1.44895 -2.01858,2.3557 -3.40189,2.063 -0.96075,-0.20329 -0.97496,-0.35326 -0.83686,-8.8349 0.088,-5.40304 -0.0252,-6.49469 -0.86273,-8.32209 -1.03839,-2.26565 -1.48359,-2.49994 -2.6363,-1.3874 -1.08013,1.04249 -1.18068,1.86228 -1.33844,10.91223 -0.15503,8.89366 -0.42517,10.02379 -2.70706,11.32475 -1.4414,0.82179 -2.03434,0.92873 -2.52479,0.45537 z M 48.23921,113.27892 C 33.087983,108.06269 29.342043,98.489013 39.056022,89.809003 c 3.586693,-3.20493 7.974541,-5.67772 14.722983,-8.29722 5.436098,-2.1101 15.084859,-4.74775 20.783014,-5.6814 2.384019,-0.39062 3.240995,-0.73022 3.450516,-1.36735 0.481995,-1.46571 4.766837,-4.79741 8.727659,-6.78625 5.400487,-2.71172 11.607247,-4.17333 18.976426,-4.4687 13.01735,-0.52175 23.60395,2.65934 30.36358,9.12372 2.94064,2.8122 3.53356,3.17212 5.90588,3.58508 4.21569,0.73385 11.47469,2.56956 16.18963,4.09416 21.5644,6.97296 30.26364,18.54201 20.4844,27.242057 -1.96091,1.74452 -5.44486,3.71617 -8.19874,4.63988 l -1.26978,0.4259 1.18118,-0.78375 c 2.42316,-1.60785 6.74439,-5.86936 7.60934,-7.50421 0.49232,-0.93051 0.89512,-2.44531 0.89512,-3.36621 0,-8.236207 -19.89191,-15.109917 -50.79056,-17.550817 -8.50214,-0.67164 -29.684659,-0.66719 -38.506316,0.008 -27.074619,2.07252 -47.00252,8.00676 -50.821135,15.1338 -2.162132,4.035397 1.554399,9.137327 10.397137,14.272867 3.057472,1.77567 2.762392,2.01706 -0.917146,0.75027 z"
       id="path24" />
  </g>
</svg>
